<?xml version="1.0" encoding="utf-8"?>
<!-- Generator: Adobe Illustrator 27.0.0, SVG Export Plug-In . SVG Version: 6.00 Build 0)  -->
<svg version="1.1" id="Layer_1" xmlns="http://www.w3.org/2000/svg" xmlns:xlink="http://www.w3.org/1999/xlink" x="0px" y="0px"
	 viewBox="0 0 23 23" style="enable-background:new 0 0 23 23;" xml:space="preserve">
<style type="text/css">
	.st0{fill:#FFFFFF;}
	.st1{fill:none;stroke:#FB4415;stroke-width:1.0498;stroke-linecap:round;stroke-linejoin:round;}
</style>
<path class="st0" d="M6.074,0.4074h11.1111c3.0683,0,5.5556,2.4873,5.5556,5.5556V17.074c0,3.0683-2.4873,5.5556-5.5556,5.5556
	H6.074c-3.0683,0-5.5556-2.4873-5.5556-5.5556V5.9629C0.5184,2.8947,3.0057,0.4074,6.074,0.4074z"/>
<path class="st1" d="M17.7986,11.5c0-0.8398-0.6998-1.5397-1.5397-1.5397h-2.6594c0,1.1897-0.9098,2.0995-2.0995,2.0995
	s-2.0995-0.9098-2.0995-2.0995H6.741c-0.8398,0-1.5397,0.6998-1.5397,1.5397 M17.7986,11.5v4.1991
	c0,0.8398-0.6998,1.5397-1.5397,1.5397H6.741c-0.8398,0-1.5397-0.6998-1.5397-1.5397V11.5 M17.7986,11.5V9.4005 M5.2014,11.5V9.4005
	 M17.7986,9.4005c0-0.8398-0.6998-1.5397-1.5397-1.5397H6.741c-0.8398,0-1.5397,0.6998-1.5397,1.5397 M17.7986,9.4005V7.3009
	c0-0.8398-0.6998-1.5397-1.5397-1.5397H6.741c-0.8398,0-1.5397,0.6998-1.5397,1.5397v2.0995"/>
</svg>
