<?xml version="1.0" encoding="utf-8"?>
<!-- Generator: Adobe Illustrator 27.0.0, SVG Export Plug-In . SVG Version: 6.00 Build 0)  -->
<svg version="1.1" id="Layer_1" xmlns="http://www.w3.org/2000/svg" xmlns:xlink="http://www.w3.org/1999/xlink" x="0px" y="0px"
	 viewBox="0 0 23 23" style="enable-background:new 0 0 23 23;" xml:space="preserve">
<style type="text/css">
	.st0{fill:#FFFFFF;}
	.st1{fill:none;stroke:#FB4415;stroke-width:1.0784;stroke-linecap:round;stroke-linejoin:round;}
</style>
<path class="st0" d="M6.074,0.4074h11.1111c3.0683,0,5.5556,2.4873,5.5556,5.5556V17.074c0,3.0683-2.4873,5.5556-5.5556,5.5556
	H6.074c-3.0683,0-5.5556-2.4873-5.5556-5.5556V5.9629C0.5184,2.8947,3.0057,0.4074,6.074,0.4074z"/>
<path class="st1" d="M11.0686,5.6766c-0.0719,0.1438-0.0719,0.2876-0.0719,0.5033c0,0.2876,0.2157,0.5751,0.5751,0.5751h3.2352
	c0.2876,0,0.5751-0.2157,0.5751-0.5751c0-0.1438,0-0.2876-0.0719-0.5033 M10.9967,5.6766c0.2157-0.647,0.8627-1.1503,1.5817-1.1503
	h1.0784c0.7189,0,1.366,0.5033,1.5098,1.1503 M10.9967,5.6766c-0.2876,0-0.5751,0-0.7908,0.0719
	C9.4151,5.8204,8.7681,6.5394,8.7681,7.3302v1.5098 M15.1666,5.6766c0.2876,0,0.5751,0,0.7908,0.0719
	c0.7908,0.0719,1.4379,0.7908,1.4379,1.5817v7.4769c0,0.8627-0.7189,1.5817-1.5817,1.5817h-1.5817 M8.7681,8.8399H6.3956
	c-0.4314,0-0.7908,0.3595-0.7908,0.7908v8.052c0,0.4314,0.3595,0.7908,0.7908,0.7908h7.0455c0.4314,0,0.7908-0.3595,0.7908-0.7908
	v-1.366 M8.7681,8.8399h4.6012c0.4314,0,0.7908,0.3595,0.7908,0.7908v6.758 M8.2648,14.3038l1.0784,1.0065L11.5,12.5784"/>
</svg>
