<?xml version="1.0" encoding="utf-8"?>
<!-- Generator: Adobe Illustrator 27.0.0, SVG Export Plug-In . SVG Version: 6.00 Build 0)  -->
<svg version="1.1" id="Layer_1" xmlns="http://www.w3.org/2000/svg" xmlns:xlink="http://www.w3.org/1999/xlink" x="0px" y="0px"
	 viewBox="0 0 23 23" style="enable-background:new 0 0 23 23;" xml:space="preserve">
<style type="text/css">
	.st0{fill:#FB4415;}
	.st1{fill:none;stroke:#FFFFFF;stroke-width:0.989;stroke-linecap:round;stroke-linejoin:round;}
</style>
<path class="st0" d="M6.074,0.4074h11.1111c3.0683,0,5.5556,2.4873,5.5556,5.5556V17.074c0,3.0683-2.4873,5.5556-5.5556,5.5556
	H6.074c-3.0683,0-5.5556-2.4873-5.5556-5.5556V5.9629C0.5184,2.8947,3.0057,0.4074,6.074,0.4074z"/>
<path class="st1" d="M6.0934,7.544c0-0.7912,0.6593-1.4505,1.4505-1.4505h1.4505c0.7912,0,1.4505,0.6593,1.4505,1.4505v1.4505
	c0,0.7912-0.6593,1.4505-1.4505,1.4505H7.544c-0.7912,0-1.4505-0.6593-1.4505-1.4505V7.544z M6.0934,14.0055
	c0-0.7912,0.6593-1.4505,1.4505-1.4505h1.4505c0.7912,0,1.4505,0.6593,1.4505,1.4505v1.4505c0,0.7912-0.6593,1.4505-1.4505,1.4505
	H7.544c-0.7912,0-1.4505-0.6593-1.4505-1.4505V14.0055z M12.522,7.544c0-0.7912,0.6264-1.4505,1.4176-1.4505h1.5165
	c0.7912,0,1.4505,0.6593,1.4505,1.4505v1.4505c0,0.7912-0.6593,1.4505-1.4505,1.4505h-1.4505c-0.7912,0-1.4505-0.6593-1.4505-1.4505
	L12.522,7.544L12.522,7.544z M12.522,14.0055c0-0.7912,0.6264-1.4505,1.4176-1.4505h1.5165c0.7912,0,1.4505,0.6593,1.4505,1.4505
	v1.4505c0,0.7912-0.6593,1.4505-1.4505,1.4505h-1.4505c-0.7912,0-1.4505-0.6593-1.4505-1.4505L12.522,14.0055L12.522,14.0055z"/>
</svg>
