<?xml version="1.0" encoding="utf-8"?>
<!-- Generator: Adobe Illustrator 27.0.0, SVG Export Plug-In . SVG Version: 6.00 Build 0)  -->
<svg version="1.1" id="Layer_1" xmlns="http://www.w3.org/2000/svg" xmlns:xlink="http://www.w3.org/1999/xlink" x="0px" y="0px"
	 viewBox="0 0 23 23" style="enable-background:new 0 0 23 23;" xml:space="preserve">
<style type="text/css">
	.st0{fill:#FFFFFF;}
	.st1{fill:none;stroke:#FB4415;stroke-width:1.0549;stroke-linecap:round;stroke-linejoin:round;}
</style>
<path class="st0" d="M6.074,0.4074h11.1111c3.0683,0,5.5556,2.4873,5.5556,5.5556V17.074c0,3.0683-2.4873,5.5556-5.5556,5.5556
	H6.074c-3.0683,0-5.5556-2.4873-5.5556-5.5556V5.9629C0.5184,2.8947,3.0057,0.4074,6.074,0.4074z"/>
<path class="st1" d="M11.5,8.5019h1.0549 M11.5,10.6118h1.0549 M7.2802,12.7217h5.2747 M7.2802,14.8316h5.2747 M14.6648,8.5019
	h2.3912c0.422,0,0.7736,0.3516,0.7736,0.7736v6.611c0,0.844-0.7033,1.5472-1.5472,1.5472 M14.6648,8.5019v7.3846
	c0,0.844,0.7033,1.5472,1.5472,1.5472 M14.6648,8.5019V6.6734c0-0.422-0.3516-0.7736-0.7736-0.7736H5.944
	c-0.422,0-0.7736,0.3516-0.7736,0.7736v9.2131c0,0.844,0.7033,1.5472,1.5472,1.5472h9.4945 M7.2802,8.5019h2.1099v2.1099H7.2802
	V8.5019z"/>
</svg>
