<?xml version="1.0" encoding="utf-8"?>
<!-- Generator: Adobe Illustrator 27.0.0, SVG Export Plug-In . SVG Version: 6.00 Build 0)  -->
<svg version="1.1" id="Layer_1" xmlns="http://www.w3.org/2000/svg" xmlns:xlink="http://www.w3.org/1999/xlink" x="0px" y="0px"
	 viewBox="0 0 23 23" style="enable-background:new 0 0 23 23;" xml:space="preserve">
<style type="text/css">
	.st0{fill:#FFFFFF;}
	.st1{fill:none;stroke:#FB4415;stroke-width:0.9722;stroke-linecap:round;stroke-linejoin:round;}
</style>
<path class="st0" d="M6.074,0.4074h11.1111c3.0683,0,5.5556,2.4873,5.5556,5.5556V17.074c0,3.0683-2.4873,5.5556-5.5556,5.5556
	H6.074c-3.0683,0-5.5556-2.4873-5.5556-5.5556V5.9629C0.5184,2.8947,3.0057,0.4074,6.074,0.4074z"/>
<path class="st1" d="M11.188,6.0353c0.0648-0.1944,0.2593-0.2593,0.4537-0.1944c0.0648,0.0648,0.1296,0.1296,0.1944,0.1944
	l1.3611,3.3056c0.0648,0.1296,0.1944,0.1944,0.3241,0.1944l3.5648,0.2593c0.3241,0,0.4537,0.4537,0.1944,0.6482l-2.6574,2.3982
	c-0.1296,0.0648-0.1296,0.2593-0.1296,0.3889l0.8426,3.5c0.0648,0.1944-0.0648,0.3889-0.2593,0.4537
	c-0.0648,0-0.1944,0-0.2593-0.0648l-3.0463-1.8796c-0.1296-0.0648-0.2593-0.0648-0.3889,0l-3.1111,1.8148
	c-0.1944,0.1296-0.3889,0.0648-0.5185-0.1296C7.688,16.8594,7.688,16.7298,7.688,16.665l0.8426-3.5c0-0.1296,0-0.2593-0.1296-0.3889
	l-2.7222-2.2685c-0.1296-0.1296-0.1296-0.3889,0-0.5185c0.0648-0.0648,0.1296-0.1296,0.2593-0.1296l3.5648-0.2593
	c0.1296,0,0.2593-0.1296,0.3241-0.1944L11.188,6.0353L11.188,6.0353z"/>
</svg>
