<?xml version="1.0" encoding="utf-8"?>
<!-- Generator: Adobe Illustrator 27.0.0, SVG Export Plug-In . SVG Version: 6.00 Build 0)  -->
<svg version="1.1" id="Layer_1" xmlns="http://www.w3.org/2000/svg" xmlns:xlink="http://www.w3.org/1999/xlink" x="0px" y="0px"
	 viewBox="0 0 23 23" style="enable-background:new 0 0 23 23;" xml:space="preserve">
<style type="text/css">
	.st0{fill:#FFFFFF;}
	.st1{fill:none;stroke:#FB4415;stroke-width:0.9605;stroke-linecap:round;stroke-linejoin:round;}
</style>
<path class="st0" d="M6.074,0.4074h11.1111c3.0683,0,5.5556,2.4873,5.5556,5.5556V17.074c0,3.0683-2.4873,5.5556-5.5556,5.5556
	H6.074c-3.0683,0-5.5556-2.4873-5.5556-5.5556V5.9629C0.5184,2.8947,3.0057,0.4074,6.074,0.4074z"/>
<g>
	<path class="st1" d="M5.2247,15.392c3.3938,0,6.7876,0.4482,10.1174,1.3447c0.4482,0.1281,0.9605-0.1921,0.9605-0.7044V15.392
		 M6.2492,6.2351v0.5123c0,0.2561-0.2561,0.4482-0.5123,0.4482H5.2247 M5.2247,7.1956V6.9395c0-0.3842,0.3202-0.7044,0.7044-0.7044
		h10.8218 M5.2247,7.1956v5.7631 M16.7508,6.2351v0.5123c0,0.2561,0.2561,0.4482,0.5123,0.4482h0.5123 M16.7508,6.2351h0.2561
		c0.3842,0,0.7044,0.3202,0.7044,0.7044v6.2753c0,0.3842-0.3202,0.7044-0.7044,0.7044h-0.2561 M17.7753,12.9587h-0.5123
		c-0.2561,0-0.5123,0.1921-0.5123,0.5123v0.5123 M16.7508,13.9192H6.2492 M6.2492,13.9192H5.9931
		c-0.3842,0-0.7044-0.3202-0.7044-0.7044v-0.2561 M6.2492,13.9192v-0.5123c0-0.2561-0.2561-0.4482-0.5123-0.4482H5.2247
		 M13.421,10.0771c0,1.0886-0.8324,1.921-1.921,1.921s-1.921-0.8324-1.921-1.921s0.8324-1.921,1.921-1.921
		S13.421,8.9886,13.421,10.0771z M15.342,10.0771L15.342,10.0771L15.342,10.0771L15.342,10.0771L15.342,10.0771z M7.658,10.0771
		L7.658,10.0771L7.658,10.0771L7.658,10.0771L7.658,10.0771z"/>
</g>
</svg>
