<svg width="19" height="18" viewBox="0 0 19 18" fill="none" xmlns="http://www.w3.org/2000/svg">
<rect x="0.481445" y="0.370422" width="17.5926" height="17.5926" rx="8.7963" fill="#F7F7F8"/>
<path d="M9.28844 4.25702C7.50063 4.25702 6.0477 5.70995 6.0477 7.49776V9.05872C6.0477 9.38819 5.90727 9.89051 5.73983 10.1714L5.11869 11.203C4.7352 11.8404 4.99986 12.5479 5.70202 12.7856C8.02995 13.5633 10.5415 13.5633 12.8695 12.7856C13.523 12.5695 13.8093 11.7971 13.4528 11.203L12.8317 10.1714C12.6696 9.89051 12.5292 9.38819 12.5292 9.05872V7.49776C12.5292 5.71535 11.0708 4.25702 9.28844 4.25702Z" stroke="#323133" stroke-width="1.11111" stroke-miterlimit="10" stroke-linecap="round"/>
<path d="M10.2878 4.41365C10.1203 4.36504 9.94749 4.32723 9.76925 4.30562C9.25073 4.24081 8.75381 4.27862 8.28931 4.41365C8.44594 4.01396 8.83483 3.73309 9.28854 3.73309C9.74224 3.73309 10.1311 4.01396 10.2878 4.41365Z" stroke="#323133" stroke-width="1.11111" stroke-miterlimit="10" stroke-linecap="round" stroke-linejoin="round"/>
<path d="M10.909 12.98C10.909 13.8712 10.1798 14.6004 9.28858 14.6004C8.84568 14.6004 8.43519 14.4167 8.14352 14.125C7.85185 13.8334 7.66821 13.4229 7.66821 12.98" stroke="#323133" stroke-width="1.11111" stroke-miterlimit="10"/>
</svg>
